<svg width="149" height="135" viewBox="0 0 149 135" fill="none" xmlns="http://www.w3.org/2000/svg">
<path fill-rule="evenodd" clip-rule="evenodd" d="M72.4177 15.7788C78.2769 22.303 81.9202 30.5146 82.8255 39.2367L70.435 40.5228C69.8013 34.4173 67.2509 28.6692 63.1495 24.1023C59.0481 19.5354 53.6062 16.3841 47.6037 15.1001C41.6013 13.8162 35.3464 14.4654 29.7356 16.9548C24.1248 19.4442 19.4461 23.646 16.3701 28.9579C13.2941 34.2699 11.9787 40.4192 12.6125 46.5247C13.2462 52.6301 15.7966 58.3782 19.898 62.9452C23.9994 67.5121 29.4413 70.6633 35.4437 71.9473C41.4462 73.2313 47.7011 72.582 53.3119 70.0926L58.364 81.4793C50.3485 85.0356 41.413 85.9631 32.838 84.1288C24.2631 82.2946 16.4889 77.7928 10.6298 71.2686C4.77062 64.7445 1.12728 56.5329 0.221944 47.8108C-0.6834 39.0887 1.19573 30.3039 5.59 22.7155C9.98428 15.127 16.6681 9.12446 24.6835 5.56816C32.699 2.01186 41.6345 1.08436 50.2094 2.9186C58.7844 4.75285 66.5586 9.25466 72.4177 15.7788ZM74.3708 95.5388C65.183 88.1107 61.7549 75.5978 65.7865 64.5607L53.9197 57.5778C48.3628 62.7509 39.8622 63.9056 32.9844 59.8585C24.5993 54.9244 21.8017 44.127 26.7358 35.7419C31.6699 27.3568 42.4672 24.5592 50.8523 29.4933C57.7301 33.5404 60.8487 41.5322 59.0248 48.902L70.8917 55.8849C79.4665 45.9798 94.1479 43.2903 105.843 50.1721C109.169 52.129 111.935 54.6727 114.088 57.5942L123.03 52.4525C122.705 50.7383 122.752 48.9261 123.237 47.1287C124.955 40.7644 131.506 36.9973 137.87 38.7146C144.235 40.4319 148.002 46.9833 146.284 53.3476C144.567 59.7118 138.016 63.4789 131.651 61.7617C129.823 61.2682 128.209 60.3756 126.877 59.2031L117.772 64.4384C120.319 71.3465 120.105 79.2142 116.659 86.2221L123.546 90.6466C124.908 89.5909 126.52 88.8148 128.316 88.4238C134.757 87.0215 141.115 91.1061 142.517 97.5471C143.92 103.988 139.835 110.346 133.394 111.749C126.953 113.151 120.595 109.066 119.192 102.625C118.784 100.751 118.841 98.8843 119.285 97.1443L112.294 92.6531C104.466 101.283 91.8935 104.136 81.0374 99.5369L77.931 104.605C80.3531 106.768 82.1635 109.665 82.9786 113.062C85.1072 121.933 79.6414 130.85 70.7705 132.979C61.8996 135.107 52.9827 129.641 50.8541 120.77C48.7256 111.9 54.1913 102.983 63.0622 100.854C65.7933 100.199 68.5287 100.263 71.069 100.925L74.3708 95.5388Z" fill="url(#paint0_linear_11_197)"/>
<g style="mix-blend-mode:overlay">
<path fill-rule="evenodd" clip-rule="evenodd" d="M119.285 97.1443L112.294 92.6532C113.547 91.2712 114.679 89.7411 115.662 88.0696C116.02 87.4615 116.352 86.8452 116.659 86.2222L123.546 90.6466C124.908 89.5909 126.52 88.8147 128.316 88.4238C134.757 87.0214 141.115 91.106 142.517 97.547C143.92 103.988 139.835 110.346 133.394 111.749C126.953 113.151 120.595 109.066 119.192 102.625C118.784 100.751 118.841 98.8843 119.285 97.1443Z" fill="url(#paint1_linear_11_197)"/>
<path fill-rule="evenodd" clip-rule="evenodd" d="M123.237 47.1287C124.955 40.7644 131.506 36.9973 137.87 38.7146C144.235 40.4319 148.002 46.9833 146.284 53.3475C144.567 59.7118 138.016 63.4789 131.651 61.7616C129.823 61.2682 128.209 60.3756 126.877 59.203L117.772 64.4383C116.878 62.0123 115.643 59.7047 114.088 57.5942L123.03 52.4524C122.705 50.7383 122.752 48.926 123.237 47.1287Z" fill="url(#paint2_linear_11_197)"/>
<path fill-rule="evenodd" clip-rule="evenodd" d="M77.7649 97.8889C76.5592 97.1794 75.4269 96.3927 74.3708 95.5388L71.069 100.925C68.5287 100.263 65.7933 100.199 63.0622 100.854C54.1913 102.983 48.7256 111.9 50.8542 120.77C52.9827 129.641 61.8996 135.107 70.7705 132.979C79.6414 130.85 85.1072 121.933 82.9786 113.062C82.1635 109.665 80.3531 106.768 77.931 104.605L81.0374 99.5369C79.9263 99.0662 78.8332 98.5175 77.7649 97.8889Z" fill="url(#paint3_linear_11_197)"/>
<path fill-rule="evenodd" clip-rule="evenodd" d="M26.7358 35.742C21.8017 44.1271 24.5993 54.9244 32.9844 59.8585C39.8622 63.9056 48.3629 62.751 53.9197 57.5778L65.7865 64.5607C66.3559 63.002 67.074 61.4727 67.9456 59.9914C68.8173 58.51 69.8055 57.1396 70.8917 55.8849L59.0248 48.902C60.8487 41.5323 57.7301 33.5404 50.8523 29.4933C42.4672 24.5592 31.6699 27.3568 26.7358 35.742Z" fill="url(#paint4_linear_11_197)"/>
<circle cx="91.804" cy="74.0305" r="27.6825" transform="rotate(120.474 91.804 74.0305)" fill="url(#paint5_radial_11_197)"/>
</g>
<defs>
<linearGradient id="paint0_linear_11_197" x1="178.5" y1="87.5" x2="38" y2="-8.00003" gradientUnits="userSpaceOnUse">
<stop stop-color="#1C92FF"/>
<stop offset="1" stop-color="#00ECFB"/>
</linearGradient>
<linearGradient id="paint1_linear_11_197" x1="143" y1="106" x2="80" y2="63" gradientUnits="userSpaceOnUse">
<stop stop-color="white"/>
<stop offset="1"/>
</linearGradient>
<linearGradient id="paint2_linear_11_197" x1="160" y1="27" x2="69" y2="91" gradientUnits="userSpaceOnUse">
<stop stop-color="white"/>
<stop offset="1"/>
</linearGradient>
<linearGradient id="paint3_linear_11_197" x1="50" y1="141" x2="103" y2="62" gradientUnits="userSpaceOnUse">
<stop stop-color="white"/>
<stop offset="1"/>
</linearGradient>
<linearGradient id="paint4_linear_11_197" x1="4.10068e-06" y1="27" x2="87" y2="71" gradientUnits="userSpaceOnUse">
<stop stop-color="white"/>
<stop offset="1"/>
</linearGradient>
<radialGradient id="paint5_radial_11_197" cx="0" cy="0" r="1" gradientUnits="userSpaceOnUse" gradientTransform="translate(62.0175 72.766) rotate(-161.759) scale(109.124)">
<stop stop-color="white"/>
<stop offset="1"/>
</radialGradient>
</defs>
</svg>
